<?xml version="1.0" encoding="UTF-8"?>
<svg id="Capa_2" data-name="Capa 2" xmlns="http://www.w3.org/2000/svg" viewBox="0 0 436.96 570.31">
  <defs>
    <style>
      .cls-1 {
        fill: #fff;
        stroke: #1d1d1b;
        stroke-miterlimit: 10;
        stroke-width: 10px;
      }
    </style>
  </defs>
  <g id="Capa_1-2" data-name="Capa 1">
    <path class="cls-1" d="m338.69,297.75c1.29,2.32,2.9,4.52,3.79,6.99,1.36,3.76,2.2,7.72,3.34,11.57.26.88.85,2.41,1.24,2.4,3.3-.11,4.74,2.64,7.02,4.1,2.33,1.49,5.39.74,6.79-2.09,3.56-7.14,10.03-11.01,16.26-15.45,5.21,3.04,10.54,6.03,15.71,9.28,1.11.69,2.04,2.22,2.35,3.53,3.82,15.64,7.54,31.31,6.91,47.59-.32,8.31-.79,16.61-1.21,25.39-2.5-.38-4.09-.62-6-.9-.23,2.32-.44,4.48-.68,6.91,3.2.61,4.15,2.9,5.24,5.77.7,1.84,3.77,3.47,6.02,3.87,4.07.74,6.17,3.08,7.98,6.41,1.2,2.2,2.66,4.49,4.58,6.03,3,2.4,3.98,5.24,4.53,8.92.5,3.3,1.92,6.74,3.84,9.48,3.96,5.62,5.22,10.93,1.72,17.37-2.02,3.72-2.91,8.09-4.09,12.23-.74,2.56.31,4.26,3,4.29-1.14,1.52-2.96,2.91-3.1,4.44-.15,1.64.91,3.78,2.12,5.07,5.34,5.73,2.76,12.65,3.54,19.38-4.47.88-8.69,1.7-13.22,2.59.69,5.76,1.34,11.39,2.03,17.03.74,5.99,1.48,11.98,2.29,17.95.28,2.06-.17,3.51-1.91,4.91-5.53,4.44-10.83,9.17-16.34,13.65-1.34,1.09-3.03,1.99-4.71,2.4-8.1,1.98-16.25,3.76-24.69,5.68-.81-2.05-1.71-4.05-2.42-6.11-9.94-28.77-19.89-57.54-29.74-86.34-1.06-3.09-2.63-5.19-5.94-5.85-2.75-.55-4.31-2.12-3.84-5.14.55-3.52-.72-6.08-3.37-8.55-6.64-6.22-12.62-13.18-19.53-19.06-4.84-4.12-10.76-6.98-16.26-10.29-.52-.31-1.49.1-2.24.2-1.32.17-2.78.83-3.92.47-3.87-1.22-7.63-2.79-11.94-4.43,1.8-3.32,3.47-7.04,5.72-10.37,1.67-2.47,1.62-3.52-.95-5.23-4.31-2.84-8.5-5.88-12.62-9-.63-.48-.82-1.82-.84-2.78-.05-1.79.38-3.61.21-5.38-.11-1.16-.69-2.95-1.49-3.24-3.16-1.13-2.04-3.26-1.84-5.38.16-1.72.27-3.6-.25-5.19-1.24-3.81-2.93-7.48-4.31-11.25-1.01-2.76-2.85-4.27-5.72-4.84-11.3-2.25-22.58-4.64-33.88-6.88-6.93-1.37-14.79,2.16-17.78,8.39-2.31,4.82-5.33,7.57-10.95,6.61-1.44-.25-2.98-.17-4.44.04-7.55,1.05-13.92-2.33-20.61-5-7.87-3.14-16.05-4.56-24.22-.47-1.49.74-3.2,1.03-4.79,1.59-1.64.57-3.25,1.22-5.02,1.89,0,.02-.48-.84-.47-1.7.04-2.68-1.08-4.32-3.37-5.85-1.47-.98-2.51-3.22-2.9-5.07-.82-3.95-1.27-8-1.53-12.03-.16-2.5-.86-3.42-3.54-3.47-4.67-.07-8.54,2.02-12.46,3.95-1.87.93-3.21.83-3.79-1.02-1.05-3.31-3.75-4.56-6.54-5.41-3.48-1.07-6.78-3.88-10.98-1.44-.91-3.33-.62-7.47-5.9-6.95-3.17.31-6.43-4.02-9.97,1.44,0-2.28-.14-3.28.03-4.23.6-3.42,1.54-6.8,1.89-10.24.37-3.56-.95-6.98-4.09-8.64-3.26-1.73-4.35-3.66-3.21-7.09.43-1.28.51-2.68.73-3.95-4.12-2.7-8.07-3.09-12.12-.17-3.98,2.86-8.72,2.01-13.19,2.6-3.31.44-6.55,1.34-9.82,2.03-.82.17-1.64.5-2.46.5-6.97.04-13.95.02-20.67.02-1.32-3.06-.91-4.77,1.51-5.86,2.29-1.03,2.68-2.92,1.64-4.96-1.46-2.86-.73-6.69,2.1-7.9,2.88-1.23,4.81-2.97,5.31-6.13.03-.21.05-.53.18-.59,2.03-1,3.87-2.25,2.7-4.83-.81-1.79-2.17-3.33-3.27-4.98-.11-.17-.14-.39-.31-.9.88.05,1.64.13,2.4.12.71-.01,2.04-.09,2.04-.2.22-3.62,5.01-4.34,4.96-8.39-.03-2.92.36-6.22,4.85-6.81,2.5-.33.96-2.5.15-3.71-.77-1.15-2.76-2.18-2.66-3.1.35-3.29,1.35-6.51,2.13-9.74.07-.29.36-.76.52-.75,3.9.28,3.29-3.7,4.44-4.78,2.16-.18,3.66-.05,5-.45,3.5-1.06,5.38-.45,6.94,2.91,1.95,4.21,6.27,3.83,9.64,5.61.96-2.78,1.81-5.22,2.5-7.2,2.22.7,4.09,1.84,5.78,1.61.87-.11,1.43-2.63,2.47-3.62,1.05-1,1.94-2.32,3.18-2.93,2.95-1.44,6.02-2.69,9.14-3.72,1.44-.48,3.1-.29,4.98-.42-.33-1.42-.56-2.53-.84-3.62-.95-3.61.1-6.23,2.98-8.63.51-.43.45-2.33-.05-3.08-9.79-14.55-19.71-29.02-29.51-43.56-.77-1.14-1.25-2.77-1.16-4.13.42-6.23,1-12.45,1.75-18.65.14-1.16,1.03-2.55,2-3.25,4.64-3.34,9.37-6.55,14.18-9.64,1.57-1.01,2.09-2.05,1.76-3.88-2.78-15.4-5.62-30.8-8.12-46.25-.77-4.74-2.54-8.72-5.98-11.87-2.08-1.9-2.11-3.81-.71-5.85,1.21-1.75.99-3.15-.01-4.91-.8-1.42-.99-3.18-1.54-5.1-2.21-.59-4.72-4.93-3.6-7.59.46-1.09,1.78-1.88,2.81-2.66,2.57-1.95,2.6-4.62,2.27-7.42-.24-2.01-.94-3.9-1.12-6-.21-2.52.66-3.9,1.92-5.6.74-.99,1.49-2.27,1.52-3.44.09-3.67,1.15-4.7,4.92-4.13,5.65.85,11.34,1.5,16.94,2.57,33.31,6.31,67,8.11,100.81,8.88,24.88.57,49.73,1.98,74.98,3.03-1.59,2.61-1.58,5.86-5.19,6.57-.48.1-.91,1.81-.86,2.75.02.48,1.13.94,1.79,1.34.25.15.62.09.94.13,5.09.51,5.18.51,5,5.66-.06,1.88-.66,3.73-.99,5.6-.31,1.76-1.05,3.6-.78,5.27.41,2.51-.4,3.67-2.39,5.16-1.51,1.13-2.58,3.57-2.81,5.54-.3,2.64-1.39,3.21-3.46,2.38-2.39-.95-4.62-2.32-7-3.33-.88-.37-2.01-.41-2.98-.29-5.64.73-8.62,3.99-8.35,9.51.22,4.43.66,8.86,1.31,13.25.75,5.02,2.87,9.44,6.32,13.27,1.97,2.19,3.16,5.17,5.34,7.05,4.34,3.76,6.49,8.36,7.81,13.84.94,3.94,2.93,7.67,4.81,11.32,1.02,1.99,2.74,3.62,4.18,5.38,1.46,1.78,2.84,3.66,4.47,5.26,2.14,2.1,4.36,4.16,6.81,5.87,1.91,1.34,3.8.34,4.02-1.83.91-8.8,7.64-14.43,11.62-21.53,1.16-2.06,4.29-3.14,6.7-4.26.54-.25,2.24,1.04,2.79,1.98,1.18,2,1.34,4.42,3.91,5.79.97.52,2.27,3.31,0,5.18-.72.59-1.06,1.89-1.19,2.92-.38,2.91-.54,5.85-.83,8.77-.05.5-.2,1.16-.55,1.43-3.8,2.98-3.46,7.39-3.8,11.44-.32,3.79.04,7.63-.2,11.44-.19,3.03,1.6,4.38,3.94,4,6.31-1,10.36,2.5,14.57,6.2,2.68,2.36,5.66,4.41,8.63,6.42,3.2,2.16,3.72,3.8,1.81,7.14-.52.92-1.23,1.73-1.73,2.66-1.37,2.56-2.05,5.03.63,7.36,2.08,1.81,2.23,3.86.37,6.11-2.85,3.46-4.26,8.05-8.54,10.41-.87.48-1.4,1.84-1.79,2.91-.91,2.51-2.52,4.01-4.89,5.41-2.08,1.23-3.78,3.73-4.73,6.04-1.1,2.67-2.52,4.72-4.83,6.42-2.84,2.09-2.6,3.05.26,5,3.36,2.3,6.65,4.73,9.76,7.36,1.02.86,1.42,2.5,2.02,3.82.6,1.32,1.18,2.67,1.58,4.06.23.8.28,1.78.03,2.55-.96,2.91-2.42,5.69-3.01,8.66-.4,2.02-.17,4.48.64,6.37,3.6,8.44,7.45,16.79,11.36,25.09,1.34,2.85,2.85,5.71,4.79,8.16,2.55,3.24,5.3,2.64,6.99-1.12.85-1.88,1.75-3.74,2.62-5.6.5-.07,1-.14,1.5-.2Z"/>
  </g>
</svg>