<?xml version="1.0" encoding="UTF-8"?>
<svg id="Capa_2" data-name="Capa 2" xmlns="http://www.w3.org/2000/svg" viewBox="0 0 117.13 170.48">
  <defs>
    <style>
      .cls-1 {
        fill: #fff;
        stroke: #1d1d1b;
        stroke-miterlimit: 10;
        stroke-width: 3px;
      }
    </style>
  </defs>
  <g id="Capa_1-2" data-name="Capa 1">
    <path class="cls-1" d="m101.52,167.1c-.84-1.04-1.31-1.36-1.37-1.74-1.3-8.17-6.41-9.97-13.97-9.35-7.27.6-14.65.14-21.97-.13-1.8-.06-4.25-.65-5.2-1.9-5.88-6.63-13.88.86-20.92-8.07-29.19-11.84-26.73,27.07-35.46-33.74,5.12-6.64.02-15.1-1.04-23.56,7.99-5.62,2.42-7.1,4.26-13.41.19-.59,1.18-1.14,1.1-1.58-1.46-8.02,6.83-11.96,7.88-19.18.74-5.11,2.92-10.31,7.86-13.54-1.09-14.26,3.1-27.2,9.78-39.25,26.32,4.12,51.69,2.06,77.77,2.67,3.58-.08,5.16.99,5.09,4.76,1.41,53.49-2.32,105.62-13.82,158.03Z"/>
  </g>
</svg>