<?xml version="1.0" encoding="UTF-8"?>
<svg id="Capa_2" data-name="Capa 2" xmlns="http://www.w3.org/2000/svg" viewBox="0 0 371 373">
  <defs>
    <style>
      .cls-1 {
        fill: #fff;
        stroke: #fff;
        stroke-miterlimit: 10;
      }
    </style>
  </defs>
  <g id="Capa_1-2" data-name="Capa 1">
    <path class="cls-1" d="m175.5.5c6,0,12,0,18,0,8.36,1.06,16.86,1.48,25.06,3.29,77.52,17.15,126.69,64.15,147.1,140.92,2.33,8.74,3.26,17.85,4.84,26.8v30c-.71,4.71-1.35,9.43-2.15,14.12-6.78,39.65-24.01,73.98-52.58,102.41-26.49,26.36-58,43.53-94.81,50.52-9.07,1.72-18.3,2.66-27.45,3.95h-18c-6.68-.97-13.37-1.86-20.04-2.92C82.49,357.97,21.52,300.83,5.38,228.77c-2.02-9-3.28-18.17-4.88-27.27,0-10,0-20,0-30,.27-.75.65-1.48.81-2.25,2.43-12.35,3.5-25.15,7.46-36.98C32.03,62.96,79.43,19.94,151.06,4.19c8.03-1.77,16.29-2.48,24.44-3.69ZM16.02,186.64c.3,96.67,79.84,172.7,174.74,169.88,89.6-2.66,164.29-76.6,164.2-170.37-.09-94.47-78.53-173.78-177-169.58C88.74,20.37,16.24,93.94,16.02,186.64Z"/>
    <path class="cls-1" d="m187.99,99.63c33.32,0,66.64,0,99.96,0,15.33,0,23.83,8.43,23.84,23.69.02,41.8-.32,83.59.17,125.38.2,16.81-10.97,24.87-25.03,24.8-65.97-.33-131.94-.16-197.91-.14-15.91,0-24.47-8.38-24.47-24.17,0-42.31,0-84.63,0-126.94,0-13.4,9.09-22.6,22.5-22.61,33.65-.03,67.3-.01,100.96-.01Zm97.55,16.07H91.91c.33,1.63,1.36,2.17,2.19,2.93,26.16,23.92,52.23,47.96,78.48,71.78,14.57,13.22,17.47,12.95,31.99-.44,17.5-16.14,35.11-32.14,52.66-48.22,9.26-8.49,18.49-17.02,28.3-26.04Zm-130.44,83.16c-21.24,19.49-42.2,38.73-63.71,58.48h193.74c-21.75-19.95-42.73-39.19-63.83-58.55-9.86,9.34-18.83,18.1-33.36,18-14.48-.1-23.24-9.27-32.82-17.93Zm141.06,47.73v-117.12c-21.55,19.53-42.47,38.5-63.69,57.74,21.12,19.69,42.12,39.27,63.69,59.39Zm-152.16-59.38c-21.34-19.36-42.11-38.2-63.41-57.53v116.71c21.49-20.05,42.27-39.44,63.41-59.17Z"/>
  </g>
</svg>