<?xml version="1.0" encoding="UTF-8"?>
<svg id="Capa_2" data-name="Capa 2" xmlns="http://www.w3.org/2000/svg" viewBox="0 0 400 400">
  <defs>
    <style>
      .cls-1 {
        fill: #fff;
        stroke-width: 0px;
      }
    </style>
  </defs>
  <g id="Capa_1-2" data-name="Capa 1">
    <g>
      <path class="cls-1" d="m207.56,400h-15.56c-.56-.11-1.12-.26-1.68-.32-8.07-.87-16.21-1.35-24.21-2.66-20.83-3.42-40.56-10.21-59.26-20.07-20.74-10.94-38.98-25.07-54.75-42.38-13.67-15.01-24.85-31.7-33.39-50.15-9.86-21.29-15.93-43.59-17.83-67-.27-3.29-.58-6.58-.87-9.86,0-4.89,0-9.78,0-14.67.11-.34.28-.67.31-1.01.49-5.81.79-11.65,1.47-17.44,2.24-19.19,7.47-37.57,15.28-55.22,11.18-25.28,26.93-47.31,47.23-66.07,21.76-20.1,46.76-34.68,74.98-43.71,14.18-4.53,28.7-7.43,43.54-8.64,3.22-.26,6.43-.54,9.65-.8,5.19,0,10.37,0,15.56,0,.56.11,1.12.26,1.68.32,8.07.87,16.21,1.35,24.21,2.66,20.83,3.43,40.56,10.21,59.26,20.07,20.74,10.94,38.98,25.07,54.76,42.38,13.67,15,24.85,31.7,33.39,50.14,9.87,21.3,15.94,43.6,17.84,67.01.27,3.29.58,6.58.87,9.86v14.67c-.11.34-.28.67-.31,1.02-.49,5.81-.79,11.65-1.47,17.44-2.24,19.19-7.46,37.57-15.28,55.22-11.13,25.12-26.76,47.07-46.91,65.76-21.83,20.25-46.94,34.93-75.29,44.01-14.1,4.52-28.55,7.41-43.32,8.61-3.29.27-6.58.55-9.87.83Zm-7.72-376.1c-96.88-.02-174.88,78.61-175.96,173.93-1.12,98.76,78.92,177.8,174.98,178.31,97.93.52,176.33-78.69,177.3-174.21,1-98.59-79.25-178.39-176.31-178.04Z"/>
      <path class="cls-1" d="m127.92,88.5c12.84,22.24,25.39,43.96,37.66,65.22-2.71,3.12-5.66,5.78-7.67,9.01-4.01,6.46-4.53,13.81-3.9,21.21,1.47,17.19,7.98,32.54,17.2,46.91,5.39,8.4,11.7,15.98,19.52,22.21,5.73,4.57,11.96,8.16,19.34,9.3,5.74.89,11.16-.12,16.47-3.05,12.62,21.85,25.19,43.62,37.91,65.65-2.12,1.19-4.19,2.39-6.3,3.52-7.02,3.74-14.29,6.83-22.33,7.37-9.2.62-17.39-2.47-25.12-7.21-14.59-8.93-26.99-20.39-38.25-33.12-24.71-27.91-43.8-59.35-58.2-93.66-6.44-15.33-11.52-31.12-14.45-47.53-1.66-9.27-2.57-18.6-1.99-28.02.73-11.73,6.06-21.05,15.42-27.98,4.66-3.46,9.65-6.49,14.69-9.84Z"/>
      <path class="cls-1" d="m302.66,303.56c-.43,3.42-1.93,5.85-4.67,7.47-6.17,3.63-12.34,7.25-18.6,10.72-4.5,2.5-9.32.94-11.92-3.57-11.5-19.95-23-39.89-34.52-59.83-3.56-6.16-2.43-10.49,3.7-14.04,5.55-3.22,11.12-6.42,16.67-9.64,4.88-2.83,9.73-1.4,12.75,3.81,6.4,11.05,12.77,22.11,19.16,33.16,5.13,8.88,10.31,17.74,15.37,26.67.92,1.62,1.38,3.49,2.06,5.25Z"/>
      <path class="cls-1" d="m205.02,134.28c-.48,3.41-1.86,5.9-4.63,7.52-6.11,3.58-12.24,7.15-18.4,10.64-4.7,2.66-9.41,1.33-12.13-3.38-10.39-17.95-20.75-35.92-31.11-53.89-1.48-2.56-3.03-5.07-4.39-7.69-2.23-4.28-1.05-8.87,3.09-11.37,6.19-3.74,12.46-7.36,18.79-10.86,4.41-2.43,8.91-1.27,11.51,3.07,4.6,7.66,8.97,15.44,13.44,23.17,7.17,12.4,14.37,24.78,21.48,37.2,1,1.74,1.59,3.71,2.36,5.58Z"/>
    </g>
  </g>
</svg>