<?xml version="1.0" encoding="UTF-8"?>
<svg id="Capa_2" data-name="Capa 2" xmlns="http://www.w3.org/2000/svg" viewBox="0 0 254.25 328.82">
  <defs>
    <style>
      .cls-1 {
        fill: #fff;
        stroke: #1d1d1b;
        stroke-miterlimit: 10;
        stroke-width: 5px;
      }
    </style>
  </defs>
  <g id="Capa_1-2" data-name="Capa 1">
    <path class="cls-1" d="m53.69,302.84c-2.65-2.14-5.31-3.29-6.33-5.28-4.56-8.94-8.63-18.14-12.93-27.22-2.96-6.24-5.42-12.83-9.21-18.52-3.25-4.88-2.29-9.29-.96-13.97.74-2.62,2.65-4.93,3.25-7.56.56-2.45.2-5.15,0-7.72-.07-.91-1.13-1.73-1.27-2.67-1-6.71-4.73-10.39-11.18-12.85-3.78-1.44-6.47-5.74-9.96-9.05-.06.16-.04-.48.25-.65,5.79-3.37,8.11-9.28,11.33-14.67,1.81-3.03,5.26-5.05,7.86-7.65,1.15-1.15,2.16-2.49,2.97-3.9,2.37-4.12,5.15-7.65,8.66-11.07,4.17-4.07,6.84-10.02,9.04-15.6.76-1.92-1.45-5.42-2.98-7.75-2.15-3.27-2.72-5.4.95-8.26,6.34-4.95,5.47-11.87-1.04-16.52-6.45-4.6-12.69-9.53-18.72-14.67-4.19-3.58-8.65-4.85-14.08-4.54-6.23.36-7.09-.55-6.79-6.73.42-8.56,1.27-17.11,1.95-25.66.05-.64.05-1.68.41-1.86,7.54-3.73,4.2-11.03,5.49-16.77,1.03-4.58,1.72-9.23,2.82-15.24,19.16,8.27,37.1,16.01,55.24,23.84,1.88-13.44,3.69-26.35,5.55-39.57,2.51,0,4.47-.47,6.06.09,4.16,1.48,6.9-1.06,10.41-2.28,4.52-1.58,11.07-2.47,14.73-.28,6.21,3.72,8.54-.49,12.21-2.96,1.68-1.13,4.03-3.23,5.23-2.76,3.65,1.44,7.62,2.98,8.54,7.87.74,3.98,1.53,8.15,3.4,11.65.95,1.77,4.24,2.67,6.65,3.21,9.49,2.13,19.04,3.97,28.57,5.92.81.17,1.7.65,2.42.46,4.88-1.28,8.79-1.13,9.23,5.33.02.32,1.5.97,2,.76,4.07-1.76,9.08-1.45,11.6-6.51,2.49-5.02,10.19-7.61,15.2-5.08,7.21,3.64,14.42,2.34,21.86,1.55,5.06-.54,10.23-.04,15.35.05.44,0,.95.28,1.3.57,3.4,2.89,4.23,15.81.76,18.44-3.18,2.4-4.23,5.51-4.29,8.95-.08,5.25.41,10.52.69,15.78.37,6.86.76,13.71,1.16,20.56.22,3.77.46,7.54.74,12.1-2.96-.65-5.79-1.12-8.52-1.91-3.23-.93-4.91-.32-5.41,3.42-.79,5.86-2.1,11.64-3.24,17.75-2.77-.23-5.19-.43-8.06-.67-.59,2.21-1.16,4.38-1.82,6.85-1.63-.12-3.22-.24-5.74-.42-1.58,8.77-2.79,17.75-4.88,26.52-2.3,9.64-5.2,19.16-8.25,28.6-2.17,6.72-5.1,13.19-7.57,19.81-2.22,5.93-9.23,10.68-15.5,10.74-1.46.01-3.85,1.1-4.22,2.21-2.48,7.6-4.54,15.34-6.69,22.9,3.4,2.29,6.96,4.37,10.14,6.94,2.42,1.96,1.6,5.01-1.38,6.24-1.06.44-2.22.63-3.32.97-3.76,1.15-4.92,3.07-3.08,7.04,3.59,7.77,6.7,15.77,10.37,24.56-10.22-.83-9.58,7.13-11.91,12.98-1.06,2.66-3.23,5.04-5.35,7.06-2.29,2.18-4.77.97-7.16-.56-1.68-1.07-3.7-1.61-5.57-2.38.29.58.57,1.15.86,1.73-1.71,3.2-3.41,6.41-5.26,9.89-9.21-5.62-17.65-10.77-26.01-15.87-5.57,4.2-11.45,8.02-16.56,12.68-3.46,3.15-5.93,7.41-8.71,11.28-3.46,4.82-6.1,5.04-10.33.75-.9-.92-2.01-2.26-3.06-2.29-4.95-.17-6.15-3.61-7.12-7.43-1.09-4.32-1.78-8.8-3.39-12.92-1.47-3.75-3.55-7.41-6.08-10.54-2.49-3.09-6.07-1.76-7.25,2.03-.97,3.12-2.3,6.13-4.07,10.73Z"/>
  </g>
</svg>