<?xml version="1.0" encoding="UTF-8"?>
<svg id="Capa_2" data-name="Capa 2" xmlns="http://www.w3.org/2000/svg" viewBox="0 0 250 254">
  <defs>
    <style>
      .cls-1, .cls-2 {
        fill: #0000a9;
        stroke: #0000a9;
        stroke-miterlimit: 10;
      }

      .cls-2 {
        font-family: ArialRoundedMTBold, 'Arial Rounded MT Bold';
        font-size: 36px;
      }
    </style>
  </defs>
  <g id="Capa_1-2" data-name="Capa 1">
    <path class="cls-1" d="m236.08,45.5h-12.58v-8.58c0-7.41-6.01-13.42-13.42-13.42h-10.58v-9.58c0-7.41-6.01-13.42-13.42-13.42H13.92C6.51.5.5,6.51.5,13.92v207.02c0,17.98,14.58,32.56,32.56,32.56h188.63c15.33,0,27.81-15.46,27.81-34.46V58.92c0-7.41-6.01-13.42-13.42-13.42ZM6.5,220.56V13.3c0-4.31,3.49-7.8,7.8-7.8h172.4c4.31,0,7.8,3.49,7.8,7.8v205.36c0,12.05,5.02,22.68,12.61,28.84H33.44c-14.88,0-26.94-12.06-26.94-26.94Zm237-1.64c.54,15.88-9.42,28.8-21.67,28.8s-22.21-12.92-22.33-28.8V29.5h10.89s7.8,3.65,7.11,7.95v183.51c.69,1.55,1.95,2.81,3.5,2.81s2.81-1.26,2.5-2.81V51.5h12.75s7.8,3.19,7.25,7.49v159.92h0Z"/>
    <path class="cls-1" d="m98.58,172.5H32.42c-4.37,0-7.92-3.55-7.92-7.92v-67.16c0-4.37,3.55-7.92,7.92-7.92h66.16c4.37,0,7.92,3.55,7.92,7.92v67.16c0,4.37-3.55,7.92-7.92,7.92ZM30.5,96.8v67.4c0,1.27,1.03,2.3,2.3,2.3h66.4c1.27,0,2.3-1.03,2.3-2.3v-67.4c0-1.27-1.03-2.3-2.3-2.3H32.8c-1.27,0-2.3,1.03-2.3,2.3Z"/>
    <path class="cls-1" d="m172.16,94.5h-43.17c-1.25,0-2.4-.77-2.78-1.96-.66-2.09.78-4.04,2.65-4.04h43.14c1.26,0,2.44.78,2.81,1.99.64,2.08-.79,4.01-2.66,4.01Z"/>
    <path class="cls-1" d="m172.16,120.5h-43.17c-1.25,0-2.4-.77-2.78-1.96-.66-2.09.78-4.04,2.65-4.04h43.14c1.26,0,2.44.78,2.81,1.99.64,2.08-.79,4.01-2.66,4.01Z"/>
    <path class="cls-1" d="m172.16,146.5h-43.14c-1.27,0-2.45-.79-2.82-2-.63-2.09.8-4,2.66-4h43.14c1.27,0,2.45.79,2.81,2,.63,2.09-.8,4-2.66,4Z"/>
    <path class="cls-1" d="m172.16,172.5h-43.14c-1.27,0-2.45-.79-2.82-2-.63-2.09.8-4,2.66-4h43.14c1.27,0,2.45.79,2.81,2,.63,2.09-.8,4-2.66,4Z"/>
    <path class="cls-1" d="m172.16,198.5H27.31c-1.27,0-2.45-.79-2.82-2-.63-2.09.8-4,2.66-4h144.85c1.27,0,2.45.79,2.81,2,.63,2.09-.8,4-2.66,4Z"/>
    <path class="cls-1" d="m172.16,224.5H27.31c-1.27,0-2.45-.79-2.82-2-.63-2.09.8-4,2.66-4h144.85c1.27,0,2.45.79,2.81,2,.63,2.09-.8,4-2.66,4Z"/>
    <text class="cls-2" transform="translate(17.54 60.92) scale(1.04 1)"><tspan x="0" y="0">BOLETIN</tspan></text>
  </g>
</svg>