<?xml version="1.0" encoding="UTF-8"?>
<svg id="Capa_2" data-name="Capa 2" xmlns="http://www.w3.org/2000/svg" viewBox="0 0 492 476.96">
  <defs>
    <style>
      .cls-1 {
        fill: #312783;
        stroke-width: 0px;
      }
    </style>
  </defs>
  <g id="Capa_1-2" data-name="Capa 1">
    <path class="cls-1" d="m399.73,0H92.25C41.39,0,0,41.87,0,93.32v269.59c0,51.45,41.39,93.32,92.25,93.32h143.49c5.66,0,10.25-4.65,10.25-10.37s-4.59-10.37-10.25-10.37H92.25c-39.56,0-71.75-32.56-71.75-72.58v-197h450.98v93.32c0,5.72,4.59,10.37,10.25,10.37s10.25-4.65,10.25-10.37V93.32c0-51.45-41.39-93.32-92.25-93.32ZM20.5,145.16v-51.84c0-40.02,32.18-72.58,71.75-72.58h307.48c39.56,0,71.75,32.56,71.75,72.58v51.84H20.5Zm82-62.21c0,11.45-9.18,20.74-20.5,20.74s-20.5-9.29-20.5-20.74,9.18-20.74,20.5-20.74,20.5,9.29,20.5,20.74Zm61.5,0c0,11.45-9.18,20.74-20.5,20.74s-20.5-9.29-20.5-20.74,9.18-20.74,20.5-20.74,20.5,9.29,20.5,20.74Zm61.5,0c0,11.45-9.18,20.74-20.5,20.74s-20.5-9.29-20.5-20.74,9.18-20.74,20.5-20.74,20.5,9.29,20.5,20.74Zm202.32,314.44c14.47-17.88,23.16-40.73,23.16-65.59,0-57.17-45.98-103.69-102.49-103.69s-102.49,46.51-102.49,103.69,45.98,103.69,102.49,103.69c24.58,0,47.15-8.79,64.84-23.43l61.17,61.88c2.01,2.03,4.63,3.03,7.26,3.03s5.25-1.02,7.26-3.03c4-4.04,4-10.62,0-14.66l-61.17-61.88h-.02Zm-79.33,17.36c-45.22,0-82-37.2-82-82.95s36.78-82.95,82-82.95,82,37.2,82,82.95-36.78,82.95-82,82.95Z"/>
  </g>
</svg>