<?xml version="1.0" encoding="UTF-8"?>
<svg id="Capa_2" data-name="Capa 2" xmlns="http://www.w3.org/2000/svg" viewBox="0 0 491.97 456.22">
  <defs>
    <style>
      .cls-1 {
        fill: #312783;
        stroke-width: 0px;
      }
    </style>
  </defs>
  <g id="Capa_1-2" data-name="Capa 1">
    <g>
      <path class="cls-1" d="m399.73,0H92.25C41.39,0,0,41.87,0,93.32v269.59c0,51.45,41.39,93.32,92.25,93.32h143.49c5.66,0,10.25-4.65,10.25-10.37s-4.59-10.37-10.25-10.37H92.25c-39.56,0-71.75-32.56-71.75-72.58v-197h450.98v93.32c0,5.72,4.59,10.37,10.25,10.37s10.25-4.65,10.25-10.37V93.32c0-51.45-41.39-93.32-92.25-93.32ZM20.5,145.16v-51.84c0-40.02,32.18-72.58,71.75-72.58h307.48c39.56,0,71.75,32.56,71.75,72.58v51.84H20.5Zm82-62.21c0,11.45-9.18,20.74-20.5,20.74s-20.5-9.29-20.5-20.74,9.18-20.74,20.5-20.74,20.5,9.29,20.5,20.74Zm61.5,0c0,11.45-9.18,20.74-20.5,20.74s-20.5-9.29-20.5-20.74,9.18-20.74,20.5-20.74,20.5,9.29,20.5,20.74Zm61.5,0c0,11.45-9.18,20.74-20.5,20.74s-20.5-9.29-20.5-20.74,9.18-20.74,20.5-20.74,20.5,9.29,20.5,20.74Z"/>
      <path class="cls-1" d="m272.81,264.14c-7.89,6.92-10.43,16.93-6.6,26.13l68.85,165.95,72.21-63.31,53.59,46.97,12.48-10.94-53.59-46.97,72.22-63.31-189.35-60.33c-10.34-3.33-21.99-1.07-29.83,5.82l.02-.02Zm9.95,20.86c-1.48-3.59-.58-7.21,2.51-9.9,3.04-2.66,7.27-3.53,11.31-2.23l163.3,52.05-117.74,103.2-59.37-143.12h0Z"/>
    </g>
  </g>
</svg>