<?xml version="1.0" encoding="UTF-8"?>
<svg id="Capa_2" data-name="Capa 2" xmlns="http://www.w3.org/2000/svg" viewBox="0 0 468.42 512">
  <defs>
    <style>
      .cls-1 {
        fill: #312783;
        stroke-width: 0px;
      }
    </style>
  </defs>
  <g id="Capa_1-2" data-name="Capa 1">
    <path class="cls-1" d="m128,170.67v-42.67h170.67v42.67h-170.67Zm-64,298.67c-11.78,0-21.33-9.55-21.33-21.33V64c0-11.78,9.55-21.33,21.33-21.33h320v202.67c15.84,6.67,30.31,16.22,42.67,28.16V0H64C28.65,0,0,28.65,0,64v384c0,35.35,28.65,64,64,64h266.67c-37.7,0-73.76-15.42-99.82-42.67H64Zm374.25,41.75l-56.68-56.68c-15.21,9.71-32.86,14.89-50.9,14.93-53.02,0-96-42.98-96-96s42.98-96,96-96,96,42.98,96,96h0c-.05,18.04-5.23,35.69-14.93,50.9l56.68,56.68-30.17,30.17Zm-107.58-84.42c29.46,0,53.33-23.88,53.33-53.33s-23.88-53.33-53.33-53.33-53.33,23.88-53.33,53.33,23.88,53.33,53.33,53.33Z"/>
  </g>
</svg>