<?xml version="1.0" encoding="UTF-8"?>
<svg id="Capa_2" data-name="Capa 2" xmlns="http://www.w3.org/2000/svg" viewBox="0 0 246.97 283">
  <defs>
    <style>
      .cls-1 {
        fill: #0000a9;
        stroke-width: 0px;
      }
    </style>
  </defs>
  <g id="Capa_1-2" data-name="Capa 1">
    <path class="cls-1" d="m13.98,248.08C4.63,246.91.14,243.33.01,237.26c-.07-3.17,1.29-5.89,3.91-8.1,2.03-1.71,9.05-3.12,9.05-3.12v-17.58s-7.23-1.15-9.96-3.93c-2.1-2.14-3.14-4.63-3.01-7.46.27-6.01,13.97-10.55,13.97-10.55v-17.58s-8.12-1.05-10.85-3.77c-2.17-2.16-3.26-4.68-3.11-7.56.32-6.08,12.96-10.55,12.96-10.55v-17.71s-7.13-1.04-9.86-3.74C1.03,123.55-.07,121.11,0,118.33c.08-3.13,1.5-5.74,4.13-7.87,2.61-2.12,9.85-2.81,9.85-2.81v-17.72s-8.43-1.12-11.16-4.07C.9,83.78-.09,81.41.01,78.74c.24-6.16,12.97-10.7,12.97-10.7v-17.72s-7.34-1.08-10.08-3.95C.96,44.34-.04,42.02,0,39.41c.09-6.12,4.52-9.72,13.66-10.98,0-1.17-.04-2.37,0-3.57.15-3.32-.09-6.7.59-9.94C16.05,6.5,25.14.08,35.09.03c12.94-.07,25.88.03,38.81.02,32.87,0,65.74-.04,98.62-.05,17.16,0,34.33,0,51.49,0,13.45,0,22.95,8.17,22.95,19.78,0,37.93,0,75.85,0,113.78,0,32.97,0,65.95,0,98.92,0,10.17-.04,20.33.01,30.5.03,7.24-3.19,12.97-10.24,17.03-3.3,1.9-6.96,2.92-10.88,2.95-10.59.07-21.18,0-31.77,0-7.72,0-15.44.04-23.16.04-28.91,0-57.81,0-86.72,0-16.07,0-32.13,0-48.2,0-10.92,0-19.76-6.21-21.95-15.44-.31-1.31-.36-2.68-.37-4.03-.04-4.63.3-13.9.3-13.9v-1.54Zm7-21.88c3.25,0,6.32-.06,9.38.02,1.39.04,2.44-.32,3.54-1.05,1.26-.84,2.71-1.53,4.18-2.07,7.07-2.57,15.68-.63,20.36,4.51,5.01,5.52,5.28,12.96.67,18.47-6.18,7.37-17.87,8.55-26.1,2.65-.49-.35-1.13-.75-1.72-.77-3.08-.08-6.16-.02-9.25-.04-.8,0-1.19.17-1.14,1.02.29,4.93.71,9.88.15,14.79-.11.98-.05,2.04.21,3.03,1.6,5.95,7.5,10.03,14.58,10.04,14.94.02,29.89,0,44.83,0,47.92,0,95.83,0,143.75,0,9.24,0,15.55-5.41,15.56-13.38.02-8.06,0-16.11,0-24.17,0-33.24,0-66.27,0-99.51,0-31.81,0-63.63,0-95.44,0-8.59.09-17.19-.04-25.78-.1-6.94-6.71-12.39-14.77-12.4-20.9-.02-41.79-.03-62.69-.03-32.24,0-64.48.02-96.72.02-10.03,0-20.06-.02-30.09,0-6.77.02-12.82,3.99-14.22,9.67-.63,2.56-.4,5.28-.51,7.92-.06,1.56-.01,3.12-.01,4.79,3.75,0,7.29.02,10.82-.03.45,0,.88-.4,1.32-.61,1.98-.97,3.84-2.26,5.96-2.86,6.7-1.91,12.84-.77,17.94,3.47,4.57,3.8,6.35,8.59,5.04,13.94-2.83,11.61-18.54,16.11-29.06,8.43-.34-.25-.78-.57-1.17-.58-3.58-.04-7.17-.03-10.81-.03,0,6.04,0,17.89,0,17.89,0,0,7.25.02,10.8-.03.45,0,.9-.37,1.34-.59,1.68-.87,3.26-1.99,5.06-2.6,6.41-2.17,12.48-1.35,17.74,2.42,5.36,3.85,7.48,8.95,6,14.86-2.84,11.33-18.22,15.84-28.64,8.5-.43-.3-.94-.74-1.42-.75-3.58-.06-7.17-.03-9.87-.03v17.76c2.67,0,6.2.02,9.74-.03.45,0,.91-.37,1.34-.59,1.69-.86,3.29-1.91,5.08-2.58,11.41-4.24,24.92,3.9,24.19,14.59-.42,6.1-3.76,10.76-10.27,13.31-6.83,2.67-13.3,1.78-19.12-2.37-.35-.25-.76-.61-1.15-.61-3.58-.05-10.81-.03-10.81-.03v17.83s6.72.05,10-.04c.8-.02,1.72-.33,2.34-.76,3.15-2.21,6.75-3.39,10.77-3.5,10.95-.29,19.39,7.71,18.03,17.22-1.55,10.85-15.62,16.97-26.77,10.88-2.85-1.56-5.43-2.3-8.62-2.11-1.51.09-3.03,0-4.54.02-.39,0-.22.11-.22.11v17.62s5.7.05,8.98-.04c.85-.02,1.83-.31,2.49-.76,7.33-5.03,18.26-4.68,24.7,2.06,4.58,4.8,5.59,10.29,2.48,16.14-4.71,8.87-17.66,11.74-26.59,5.76-1.58-1.06-3.07-1.45-4.96-1.39-2.68.09-8.09.02-8.09.02v17.78Zm6-151.79s0,0,0,0c-4.64,0-9.28.07-13.92-.02-3.31-.06-5.58,2.49-5.52,4.64.09,3.02,3.2,5.17,7.21,4.48,8.15-1.4,16.47-1.03,24.68.05,3.95.52,6.92-1.53,6.94-4.5.02-2.76-2.31-4.65-5.78-4.66-4.54-.01-9.07,0-13.61,0Zm-.24,118.48c-4.43,0-8.86-.02-13.29.02-.92,0-1.89.09-2.76.34-2.4.71-3.77,2.85-3.36,5.06.39,2.13,2.66,3.83,5.46,3.84,9.28.05,18.56.04,27.84.02,1.68,0,3.17-.56,4.24-1.73,1.43-1.56,1.59-3.29.62-5.06-.98-1.8-2.83-2.46-4.99-2.48-4.59-.05-9.17-.01-13.76-.01Zm-.15-148.84c4.64,0,9.28.01,13.91,0,3.27-.01,5.55-1.87,5.57-4.52.02-2.7-2.3-4.67-5.59-4.68-9.22-.02-18.44-.02-27.65,0-3.16,0-5.53,2-5.55,4.59-.02,2.78,2.14,4.6,5.56,4.61,4.59.02,9.17,0,13.76,0Zm.01,118.62c4.68,0,9.37.04,14.05-.01,3.16-.04,5.39-1.98,5.43-4.55.03-2.65-2.22-4.65-5.44-4.67-9.3-.04-18.6-.04-27.9.03-1.12,0-2.38.4-3.31.94-1.95,1.14-2.64,3.23-1.93,5,.78,1.95,2.72,3.22,5.2,3.24,4.64.04,9.27.01,13.91.01Zm.07,79.01c4.49,0,8.97,0,13.46,0,.72,0,1.47-.03,2.15-.21,2.61-.71,4.12-2.77,3.75-4.98-.42-2.45-2.41-4-5.36-4.01-9.23-.03-18.45-.02-27.68-.01-3.36,0-5.71,1.89-5.72,4.56-.02,2.71,2.39,4.65,5.79,4.65,4.54,0,9.07,0,13.61,0Zm.05-127.77c-4.64,0-9.29-.02-13.93,0-3.28.02-5.56,1.93-5.52,4.56.03,2.66,2.43,4.64,5.68,4.65,9.17,0,18.34,0,27.51,0,3.18,0,5.57-1.95,5.62-4.55.05-2.73-2.21-4.64-5.59-4.66-4.59-.02-9.18,0-13.77,0Zm23.94,76.54c3.81,5.21,3.68,10.17-.97,14.97,3.06-1.36,4.84-3.6,5.29-6.46.55-3.49-.81-6.45-4.32-8.52Zm-1.25-24.4c3.69-1.62,5.95-5.14,5.67-8.42-.26-3.01-2.49-6.17-4.8-6.81,3.99,4.17,4.32,10.34-.87,15.22Zm.47-134.12c2.27,2.22,3.43,4.7,3.43,7.52,0,2.81-1.13,5.29-3.4,7.53,2.89-.97,5.16-4.32,5.19-7.42.03-3.19-2.24-6.6-5.21-7.63Zm.41,79.17c4.2,5.06,4.07,10.02-.3,14.96,2.48-.73,4.68-3.54,5.02-6.61.39-3.58-1.38-6.32-4.71-8.36Zm-.83,133.95c3.14-1.03,5.53-4.3,5.63-7.7.09-2.96-2.01-6.32-4.6-7.35,3.67,4.31,4.24,10.13-1.03,15.05Zm.87-173.4c4.09,4.93,4.01,9.83.03,14.79,3.04-1.83,4.74-4.28,4.71-7.44-.02-3.15-1.67-5.62-4.75-7.35Z"/>
    <path class="cls-1" d="m69.65,141.56c.2-41.06,34.63-73.69,77.52-73.45,42.1.24,76.11,33.37,75.98,73.82-.12,40.15-34.62,73.57-77.93,72.96-42.03-.59-75.54-33.27-75.58-73.33Zm7.23.03c.08,36.2,30.33,65.75,68.21,66.35,38.98.62,70.44-28.85,70.82-65.92.37-36.52-30.53-66.6-68.77-66.97-38.23-.38-70.21,29.06-70.25,66.54Z"/>
    <path class="cls-1" d="m171.11,155.77c6.19,11.09,12.33,22.11,18.57,33.29-2.82,1.44-5.6,2.88-8.39,4.29-1.15.58-2.31,1.14-3.47,1.7-.55.27-1.06.91-1.73.11-.07-.09-.65.15-.96.31-1.57.78-3.18,1.51-4.68,2.41-3.58,2.16-7.21,1.65-10.97.54-5.78-1.7-10.47-4.97-14.77-8.91-9.57-8.75-16.66-19.19-22.88-30.26-4.59-8.17-8.74-16.52-11.95-25.27-2.5-6.82-4.58-13.78-5.3-20.99-.51-5.13.52-10.1,2.9-14.79,1.28-2.51,3.61-3.76,6.05-4.93,1.03-.49,2.05-.99,3.04-1.54.61-.34,1.58-.44,1.34-1.52-.02-.11.34-.33.56-.44,3.9-2,7.8-3.99,11.71-5.98.18-.09.39-.11.69-.2,6.16,11.04,12.31,22.05,18.56,33.25-2.08,1.08-4.13,2.11-6.14,3.2-3.55,1.93-7.09,3.87-10.59,5.88-.33.19-.52.89-.47,1.32.69,5.5,2.58,10.63,5.2,15.55,3.08,5.77,6.11,11.57,10.62,16.48,1.41,1.53,2.93,2.97,4.49,4.36.33.3,1.12.37,1.59.23.83-.26,1.56-.79,2.35-1.17,4.82-2.29,9.65-4.56,14.66-6.93Zm-1.85,34.63c-3.82-6.84-7.63-13.66-11.45-20.5-1.61.8-3.02,1.56-4.49,2.2-.38.17-1.05.19-1.36-.02-5-3.42-9.5-7.4-12.74-12.39-3.48-5.35-6.66-10.89-9.62-16.52-3.26-6.21-4.7-12.94-5.15-19.87-.05-.82.19-1.26.97-1.62,1.43-.66,2.8-1.44,4.26-2.19-3.88-6.95-7.69-13.77-11.68-20.93-1.58,1.18-3.45,1.92-4.2,3.25-1.8,3.14-2.39,6.72-2.03,10.28.75,7.42,3.01,14.52,5.65,21.51,3.78,9.98,8.87,19.37,14.39,28.55,4.35,7.23,9.3,14.05,15.48,20,3.53,3.4,7.01,6.84,11.74,8.77,3.44,1.39,6.85,2.58,10.22-.5Z"/>
  </g>
</svg>