<?xml version="1.0" encoding="UTF-8"?>
<svg id="Capa_2" data-name="Capa 2" xmlns="http://www.w3.org/2000/svg" viewBox="0 0 378.03 342.47">
  <defs>
    <style>
      .cls-1 {
        fill: #0000a9;
        stroke: #0000a9;
        stroke-miterlimit: 10;
      }
    </style>
  </defs>
  <g id="Capa_1-2" data-name="Capa 1">
    <path class="cls-1" d="m181.09,341.97c-2.83-1.51-3.81-3.86-3.72-7.04.17-6.16-.13-12.33.16-18.48.11-2.2.89-4.69,2.18-6.46,5.71-7.85,11.66-15.54,17.67-23.16,1.64-2.09,2.41-4.17,2.23-6.8-.18-2.59-.09-5.21-.02-7.82.1-3.98,1.87-5.83,5.82-6.16.82-.07,1.66-.02,2.49-.02,46.33,0,92.65,0,138.98,0,7.09,0,8.87,1.44,8.36,8.56-.47,6.56,1.27,11.78,5.61,16.74,5.21,5.96,9.84,12.45,14.46,18.9,1.21,1.69,1.99,4.05,2.08,6.13.27,6.15-.03,12.32.15,18.48.09,3.17-.93,5.51-3.62,7.14h-192.81Zm12.3-32.91h168.07c-4.3-5.62-8.13-10.88-12.28-15.88-1.01-1.22-3.03-2.24-4.61-2.26-11.01-.19-22.03-.1-33.05-.1-33.64,0-67.29-.01-100.93.05-1.39,0-3.31.33-4.07,1.25-4.42,5.38-8.56,10.99-13.13,16.94Zm-5.53,22.17h178.91v-11.05h-178.91v11.05Zm22.31-50.97h134.67c-.08-1.37-.14-2.47-.19-3.49h-134.68c.08,1.3.14,2.33.21,3.49Z"/>
    <g>
      <path class="cls-1" d="m204.06,168.3c-1.04,1.47-1.71,2.77-2.7,3.76-53.97,54.01-107.96,107.99-161.96,161.97-8.42,8.42-18.37,10.2-27.77,5.07-11.45-6.26-14.74-21.91-6.72-32.24,1.3-1.68,2.79-3.22,4.3-4.73,53.65-53.66,107.3-107.31,160.97-160.94,1-1,2.19-1.82,3.6-2.98-6.08-6.1-11.7-11.82-17.44-17.39-.51-.5-1.96-.39-2.83-.11-12.09,3.86-21.54-.13-26.8-11.79-2.07-4.6-5-7.85-9.72-9.7-15.24-5.97-17.34-24.21-6.38-35,19.01-18.71,37.71-37.73,56.64-56.53,11.75-11.67,28.09-8.77,34.93,6.24,2.09,4.59,5.09,7.66,9.71,9.73,11.82,5.3,15.75,14.71,11.86,27.09-.29.94.09,2.58.78,3.27,20.14,20.27,40.34,40.47,60.62,60.6.75.75,2.55,1.13,3.59.81,11.84-3.73,21.68.3,26.68,11.53,2.15,4.85,5.31,8.06,10.15,10.26,14.68,6.66,17.71,22.93,6.33,34.46-18.91,19.15-38.07,38.05-57.03,57.15-11.02,11.1-29.32,8.08-34.75-6.5-1.77-4.75-4.97-7.91-9.69-9.72-12.09-4.65-15.87-17.15-11.84-27.12.32-.78.19-2.24-.35-2.8-4.39-4.62-8.93-9.11-14.17-14.39Zm12.32-106.68c-17.14,17.13-34.62,34.58-51.7,51.65,20.39,20.39,41.06,41.06,61.5,61.5,17.13-17.13,34.53-34.53,51.72-51.72-20.42-20.39-41.02-40.97-61.51-61.43Zm-35.96,84.05c-.61.59-1.48,1.38-2.31,2.21-53.98,53.97-107.95,107.95-161.92,161.93-1.09,1.09-2.2,2.18-3.09,3.43-2.73,3.81-3.03,7.96-.91,12.07,2.13,4.13,5.69,6.17,10.4,6.18,4.17,0,7.01-2.33,9.76-5.09,54.04-54.08,108.11-108.13,162.16-162.19.82-.82,1.59-1.69,2.2-2.33-5.48-5.45-10.83-10.77-16.3-16.21Zm58.67,59.48c23.14-23.15,46.07-46.08,69.11-69.12-.7-1.56-1.59-3.49-2.42-5.44-1.59-3.76-4.49-5.7-8.45-6.14-4.03-.44-7,1.55-9.7,4.26-18.59,18.63-37.21,37.22-55.81,55.84-.92.92-1.83,1.88-2.56,2.95-3.66,5.39-1.89,12.15,3.94,15.05,2.11,1.05,4.3,1.91,5.88,2.61ZM182.94,10.27c-2.54,1.32-5.59,2.12-7.53,4.03-19.48,19.22-38.78,38.63-58.12,57.99-2.49,2.5-3.57,5.52-3.16,9.05.49,4.23,3.02,6.72,6.8,8.32,5.53,2.34,5.5,2.39,9.66-1.76,20.19-20.19,40.29-40.47,60.65-60.49,3.11-3.06,3.82-5.32,1.75-9.22-2.18-4.1-4.72-7.04-10.03-7.94Zm77.88,215.17c1.65-1.05,4.88-2.39,7.18-4.66,18.72-18.48,37.28-37.14,55.87-55.75.84-.84,1.69-1.68,2.38-2.63,3.91-5.39,2.18-12.36-3.79-15.32-1.16-.58-2.53-.83-3.56-1.58-2.2-1.6-3.6-.9-5.37.88-20.55,20.68-41.18,41.28-61.8,61.89-4.74,4.74-4.7,4.72-1.81,10.84,1.85,3.93,4.93,5.91,10.89,6.32Zm-127.02-125.92c.94,2.16,1.73,4,2.56,5.83,3.12,6.88,11.07,9.02,16.41,3.77,19.94-19.6,39.61-39.47,59.35-59.27.73-.74,1.29-1.7,1.74-2.65,2.4-5.09.51-10.71-4.47-13.35-1.14-.61-2.52-.85-3.54-1.6-2.42-1.77-3.98-1.01-5.96.98-21.12,21.27-42.35,42.43-63.54,63.62-.83.83-1.62,1.7-2.55,2.66Z"/>
      <path class="cls-1" d="m265.08,120.85c.11,4.73-3.85,7.37-7.19,5.71-1.23-.62-2.32-1.63-3.31-2.62-13.09-13.05-26.16-26.12-39.22-39.21-.91-.92-2.29-1.89-2.41-2.97-.23-1.93-.37-4.7.74-5.74,1.27-1.19,3.96-1.14,6.01-1.08.93.03,1.88,1.33,2.71,2.16,13.25,13.23,26.5,26.46,39.68,39.74,1.36,1.37,2.32,3.12,2.97,4.01Z"/>
    </g>
  </g>
</svg>