<?xml version="1.0" encoding="UTF-8"?>
<svg id="Capa_2" data-name="Capa 2" xmlns="http://www.w3.org/2000/svg" viewBox="0 0 512 512">
  <defs>
    <style>
      .cls-1 {
        fill: #312783;
        stroke-width: 0px;
      }
    </style>
  </defs>
  <g id="Capa_1-2" data-name="Capa 1">
    <path class="cls-1" d="m423.08,42.67h-156.42V0h-21.33v42.67H88.92L.83,251.86l-.83,14.81c0,52.93,43.07,96,96,96s96-43.07,96-96v-10.67L112,64h133.33v426.67H85.33v21.33h341.33v-21.33h-160V64h133.27l-79.1,187.86-.83,14.81c0,52.93,43.07,96,96,96s96-43.07,96-96v-10.67l-88.92-213.33ZM96,341.33c-37.55,0-68.71-27.86-73.92-64h147.84c-5.21,36.14-36.37,64-73.92,64Zm-73.75-85.33L96,80.83l73.75,175.17H22.25ZM416,80.83l73.75,175.17h-147.5l73.75-175.17h0Zm0,260.5c-37.55,0-68.71-27.86-73.92-64h147.84c-5.21,36.14-36.37,64-73.92,64Z"/>
  </g>
</svg>