<?xml version="1.0" encoding="UTF-8"?>
<svg id="Capa_2" data-name="Capa 2" xmlns="http://www.w3.org/2000/svg" viewBox="0 0 512 491.11">
  <defs>
    <style>
      .cls-1 {
        fill: #312783;
        stroke-width: 0px;
      }
    </style>
  </defs>
  <g id="Capa_1-2" data-name="Capa 1">
    <path class="cls-1" d="m512,76.62v343.4l-256,71.08L0,420.03V76.62c0-16.45,7.23-31.91,19.86-42.43.45-.38,1-.62,1.47-.98v370.6l234.67,65.13,234.67-65.13V33.21c.47.36,1,.6,1.47.98,12.63,10.54,19.86,26.01,19.86,42.43Zm-256,350.49l-192-54.87V53.37c0-16.9,7.74-32.41,21.23-42.58C98.73.61,115.78-2.52,131.99,2.08l89.37,25.54c14.49,4.14,26.6,13.31,34.65,25.28,8.04-11.97,20.16-21.14,34.65-25.28L380.01,2.08c16.21-4.63,33.28-1.47,46.76,8.7s21.23,25.71,21.23,42.58v318.87l-192,54.87Zm10.67-25.24l160-45.72V53.37c0-10.13-4.65-19.46-12.74-25.56-5.65-4.25-12.35-6.46-19.18-6.46-2.97,0-5.93.43-8.87,1.26l-89.39,25.54c-17.56,5.01-29.82,21.29-29.82,39.55v314.18h0Zm-21.33-314.18c0-18.28-12.27-34.56-29.82-39.55l-89.37-25.54c-9.75-2.79-19.95-.9-28.05,5.21-8.09,6.1-12.74,15.42-12.74,25.56v302.78l160,45.72V87.7h-.02Z"/>
  </g>
</svg>