<?xml version="1.0" encoding="UTF-8"?>
<svg id="Capa_2" data-name="Capa 2" xmlns="http://www.w3.org/2000/svg" viewBox="0 0 495.82 398">
  <defs>
    <style>
      .cls-1 {
        fill: #010101;
        stroke-width: 0px;
      }
    </style>
  </defs>
  <g id="Capa_1-2" data-name="Capa 1">
    <path class="cls-1" d="m298.01,24.88h99.35c13.74,0,24.84,11.12,24.84,24.88s-11.1,24.88-24.84,24.88h-88.17c-4.04,20.06-17.77,36.61-36.01,44.54v229.08h124.18c13.74,0,24.84,11.12,24.84,24.88s-11.1,24.88-24.84,24.88H99.32c-13.74,0-24.84-11.12-24.84-24.88s11.1-24.88,24.84-24.88h124.18V119.17c-18.24-8.01-31.98-24.56-36.01-44.54h-88.17c-13.74,0-24.84-11.12-24.84-24.88s11.1-24.88,24.84-24.88h99.35C210,9.79,228,0,248.34,0s38.34,9.79,49.67,24.88Zm43.15,223.88h112.39l-56.19-96.55-56.19,96.55Zm56.19,74.62c-48.82,0-89.41-26.43-97.79-61.33-2.02-8.55.78-17.33,5.2-24.95l73.89-126.86c3.88-6.69,11.02-10.73,18.71-10.73s14.82,4.12,18.71,10.73l73.89,126.86c4.42,7.62,7.22,16.4,5.2,24.95-8.38,34.9-48.98,61.33-97.79,61.33ZM98.38,152.2l-56.19,96.55h112.46l-56.27-96.55ZM.67,262.04c-2.02-8.55.78-17.33,5.2-24.95l73.89-126.86c3.88-6.69,11.02-10.73,18.71-10.73s14.82,4.12,18.71,10.73l73.89,126.86c4.42,7.62,7.22,16.4,5.2,24.95-8.46,34.9-49.05,61.33-97.87,61.33S9.05,296.95.67,262.04Z"/>
  </g>
</svg>